<?xml version="1.0" encoding="utf-8"?>
<!-- Generator: Adobe Illustrator 23.0.1, SVG Export Plug-In . SVG Version: 6.00 Build 0)  -->
<svg version="1.1" id="Layer_1" xmlns="http://www.w3.org/2000/svg" xmlns:xlink="http://www.w3.org/1999/xlink" x="0px" y="0px"
	 viewBox="0 0 14 18" style="enable-background:new 0 0 14 18;" xml:space="preserve">
<path d="M13.6,6.1c-0.1,0.1-1.9,1.1-1.9,3.4c0,2.7,2.2,3.6,2.3,3.6c0,0.1-0.4,1.3-1.2,2.6c-0.7,1.1-1.5,2.2-2.7,2.2
	s-1.5-0.7-2.8-0.7C6,17.3,5.5,18,4.5,18c-1.1,0-1.8-1-2.7-2.3c-1-1.5-1.8-3.8-1.8-6c0-3.5,2.2-5.4,4.3-5.4c1.1,0,2.1,0.8,2.8,0.8
	s1.7-0.8,3-0.8C10.6,4.4,12.4,4.4,13.6,6.1z M9.5,2.9c0.5-0.7,0.9-1.6,0.9-2.5c0-0.1,0-0.3,0-0.4C9.5,0,8.5,0.6,7.9,1.4
	c-0.5,0.5-1,1.5-1,2.4c0,0.1,0,0.3,0,0.3c0.1,0,0.1,0,0.2,0C8,4.2,9,3.6,9.5,2.9z"/>
</svg>
